<?xml version="1.0" encoding="iso-8859-1"?>
<!-- Generator: Adobe Illustrator 19.0.0, SVG Export Plug-In . SVG Version: 6.00 Build 0)  -->
<svg version="1.1" id="Capa_1" xmlns="http://www.w3.org/2000/svg" xmlns:xlink="http://www.w3.org/1999/xlink" x="0px" y="0px"
	 viewBox="0 0 55.597 55.597" style="enable-background:new 0 0 55.597 55.597;" xml:space="preserve">
<polygon style="fill:#F3D55B;" points="27.597,7.79 3.597,49.79 52.597,49.79 "/>
<path style="fill:#556080;" d="M55.458,50.307L44.196,31.086l-0.77-1.314L28.49,4.282c-0.386-0.659-1.339-0.656-1.721,0.005
	L12.363,29.18l-1.214,2.097L0.135,50.312c-0.384,0.664,0.095,1.495,0.862,1.495h26.627h26.974
	C55.369,51.807,55.848,50.971,55.458,50.307z M6.446,47.807l8.099-13.995l4.952-8.559l8.389-14.497l8.563,14.613l4.849,8.274
	l8.299,14.164H6.446z"/>
<path style="fill:#E6E7E8;" d="M44.538,30.777L44.538,30.777c-9.373,9.373-24.569,9.373-33.941,0l0,0l0,0
	C19.969,21.405,35.165,21.405,44.538,30.777L44.538,30.777z"/>
<circle style="fill:#48A0DC;" cx="27.597" cy="30.79" r="6"/>
<circle style="fill:#556080;" cx="27.597" cy="30.79" r="3"/>
<g>
</g>
<g>
</g>
<g>
</g>
<g>
</g>
<g>
</g>
<g>
</g>
<g>
</g>
<g>
</g>
<g>
</g>
<g>
</g>
<g>
</g>
<g>
</g>
<g>
</g>
<g>
</g>
<g>
</g>
</svg>
