<?xml version="1.0" encoding="iso-8859-1"?>
<!-- Generator: Adobe Illustrator 19.0.0, SVG Export Plug-In . SVG Version: 6.00 Build 0)  -->
<svg version="1.1" id="Capa_1" xmlns="http://www.w3.org/2000/svg" xmlns:xlink="http://www.w3.org/1999/xlink" x="0px" y="0px"
	 viewBox="0 0 60 60" style="enable-background:new 0 0 60 60;" xml:space="preserve">
<g>
	<polygon points="33.567,25.483 26.366,25.483 23.124,30.886 26.433,36.483 33.634,36.483 36.876,31.079 	"/>
	<polygon points="19.767,36.483 24.11,36.483 21.954,32.836 	"/>
	<path d="M59.832,11.928l-4-6c-0.371-0.557-1.293-0.557-1.664,0l-4,6C50.059,12.092,50,12.285,50,12.483v8h10v-8
		C60,12.285,59.941,12.092,59.832,11.928z M56,18.483c0,0.553-0.447,1-1,1s-1-0.447-1-1v-6c0-0.553,0.447-1,1-1s1,0.447,1,1V18.483z
		"/>
	<path d="M10,12.483c0-0.197-0.059-0.391-0.168-0.555l-4-6c-0.371-0.557-1.293-0.557-1.664,0l-4,6C0.059,12.092,0,12.285,0,12.483v8
		h10V12.483z M6,18.483c0,0.553-0.447,1-1,1s-1-0.447-1-1v-6c0-0.553,0.447-1,1-1s1,0.447,1,1V18.483z"/>
	<polygon points="29.993,19.437 27.566,23.483 32.385,23.483 	"/>
	<polygon points="24.034,25.483 19.93,25.483 21.967,28.928 	"/>
	<path d="M50,33.783L30.864,0.979c-0.359-0.615-1.369-0.615-1.729,0L10,33.783V22.483H0v36c0,0.553,0.447,1,1,1h4v-11
		c0-2.757,2.243-5,5-5s5,2.243,5,5v11h3v-11c0-2.757,2.243-5,5-5s5,2.243,5,5v11h4v-11c0-2.757,2.243-5,5-5s5,2.243,5,5v11h3v-11
		c0-2.757,2.243-5,5-5s5,2.243,5,5v11h4c0.553,0,1-0.447,1-1v-36H50V33.783z M42.857,24.997l-3.654,6.09l3.391,5.736
		c0.155,0.176,0.248,0.406,0.248,0.659c0,0.553-0.447,1-1,1c-0.005,0.001-0.013,0.001-0.02,0h-7.057l-3.909,6.515
		c-0.181,0.301-0.506,0.485-0.857,0.485c-0.001,0-0.002,0-0.003,0c-0.353-0.001-0.679-0.188-0.857-0.491l-3.848-6.509H18
		c-0.36,0-0.692-0.193-0.87-0.507c-0.178-0.314-0.173-0.699,0.013-1.008l3.654-6.09l-3.48-5.887
		c-0.184-0.309-0.187-0.692-0.008-1.004c0.178-0.313,0.509-0.505,0.868-0.505h7.057l3.909-6.515
		c0.181-0.301,0.506-0.485,0.857-0.485c0.001,0,0.002,0,0.003,0c0.353,0.001,0.679,0.188,0.857,0.491l3.848,6.509H42
		c0.36,0,0.692,0.193,0.87,0.507C43.048,24.304,43.043,24.689,42.857,24.997z"/>
	<polygon points="30.007,42.529 32.434,38.483 27.615,38.483 	"/>
	<polygon points="38.046,29.129 40.233,25.483 35.89,25.483 	"/>
	<polygon points="35.966,36.483 40.07,36.483 38.033,33.037 	"/>
</g>
<g>
</g>
<g>
</g>
<g>
</g>
<g>
</g>
<g>
</g>
<g>
</g>
<g>
</g>
<g>
</g>
<g>
</g>
<g>
</g>
<g>
</g>
<g>
</g>
<g>
</g>
<g>
</g>
<g>
</g>
</svg>
