<?xml version="1.0" encoding="iso-8859-1"?>
<!-- Generator: Adobe Illustrator 19.0.0, SVG Export Plug-In . SVG Version: 6.00 Build 0)  -->
<svg version="1.1" id="Layer_1" xmlns="http://www.w3.org/2000/svg" xmlns:xlink="http://www.w3.org/1999/xlink" x="0px" y="0px"
	 viewBox="0 0 512.853 512.853" style="enable-background:new 0 0 512.853 512.853;" xml:space="preserve">
<g transform="translate(1 1)">
	<g>
		<path style="fill:#FFE100;" d="M502.467,178.627c0,9.387-7.68,17.067-17.067,17.067h-42.667c-28.16,0-43.52-15.36-49.493-25.6
			C350.573,100.973,277.187,60.867,255,50.627c-22.187,10.24-95.573,50.347-138.24,119.467c-5.12,10.24-20.48,25.6-49.493,25.6H24.6
			c-9.387,0-17.067-7.68-17.067-17.067l0,0c0-9.387,7.68-17.067,17.067-17.067h42.667c14.507,0,18.773-6.827,18.773-7.68
			l0.853-0.853C143.213,61.72,243.907,19.907,248.173,18.2L255,16.493l6.827,0.853c4.267,2.56,104.96,44.373,161.28,135.68
			l0.853,1.707c0,0,4.267,6.827,18.773,6.827H485.4C494.787,161.56,502.467,169.24,502.467,178.627z"/>
		<path style="fill:#FFE100;" d="M442.733,195.693c-28.16,0-43.52-15.36-49.493-25.6C350.573,100.973,277.187,60.867,255,50.627
			c-22.187,10.24-95.573,50.347-138.24,119.467c-5.12,10.24-20.48,25.6-49.493,25.6h-8.533V494.36h392.533V195.693H442.733z"/>
	</g>
	<g>
		<path style="fill:#FFA800;" d="M485.4,161.56h-17.067c9.387,0,17.067,7.68,17.067,17.067c0,9.387-7.68,17.067-17.067,17.067H485.4
			c9.387,0,17.067-7.68,17.067-17.067C502.467,169.24,494.787,161.56,485.4,161.56"/>
		<polygon style="fill:#FFA800;" points="434.2,494.36 451.267,494.36 451.267,195.693 434.2,195.693 		"/>
		<path style="fill:#FFA800;" d="M24.6,161.56h17.067c-9.387,0-17.067,7.68-17.067,17.067c0,9.387,7.68,17.067,17.067,17.067H24.6
			c-9.387,0-17.067-7.68-17.067-17.067C7.533,169.24,15.213,161.56,24.6,161.56"/>
		<polygon style="fill:#FFA800;" points="58.733,494.36 75.8,494.36 75.8,195.693 58.733,195.693 		"/>
	</g>
	<g>
		<path style="fill:#63D3FD;" d="M195.267,494.36h-85.333V367.213l0,0c23.893-23.893,61.44-23.893,85.333,0l0,0V494.36z"/>
		<path style="fill:#63D3FD;" d="M400.067,494.36h-85.333V367.213l0,0c23.893-23.893,61.44-23.893,85.333,0l0,0V494.36z"/>
	</g>
	<g>
		<path style="fill:#3DB9F9;" d="M348.867,350.147c12.8,1.707,24.747,7.68,34.133,17.067V494.36h17.067V367.213
			C386.413,352.707,366.787,347.587,348.867,350.147"/>
		<path style="fill:#3DB9F9;" d="M144.067,350.147c12.8,1.707,24.747,7.68,34.133,17.067V494.36h17.067V367.213
			C181.613,352.707,161.987,347.587,144.067,350.147"/>
	</g>
	<g>
		<polygon style="fill:#00DA6C;" points="355.693,298.093 152.6,298.093 255,127.427 		"/>
		<polygon style="fill:#00DA6C;" points="154.307,187.16 357.4,187.16 255,357.827 		"/>
	</g>
	<g>
		<path style="fill:#060606;" d="M485.4,204.227h-42.667c-29.867,0-49.493-16.213-56.32-30.72
			C345.453,107.8,273.773,69.4,255,60.013C236.227,69.4,164.547,107.8,123.587,174.36c-6.827,13.653-26.453,29.867-56.32,29.867
			H24.6c-14.507,0-25.6-11.093-25.6-25.6c0-14.507,11.093-25.6,25.6-25.6h42.667c9.387,0,11.093-3.413,11.947-3.413l0.853-0.853
			c58.027-93.867,161.28-136.533,165.547-138.24c0.853,0,0.853,0,1.707-0.853l5.973-1.707c0.853,0,2.56,0,3.413,0l6.827,0.853
			c0.853,0,0.853,0,1.707,0.853c4.267,1.707,108.373,45.227,165.547,138.24l0.853,1.707c0.853,0.853,4.267,3.413,11.947,3.413
			h42.667c14.507,0,25.6,11.093,25.6,25.6C511.853,193.133,499.907,204.227,485.4,204.227z M255,42.093c0.853,0,2.56,0,3.413,0.853
			c15.36,7.68,95.573,47.787,142.507,122.88c1.707,2.56,11.947,22.187,41.813,22.187H485.4c5.12,0,8.533-3.413,8.533-8.533
			c0-5.12-3.413-8.533-8.533-8.533h-42.667c-17.067,0-23.893-8.533-25.6-11.093c0,0,0-0.853-0.853-0.853l-0.853-1.707
			C363.373,71.96,268.653,30.147,259.267,25.88L255,25.027l-4.267,0.853c-10.24,4.267-104.107,45.227-157.013,131.413l-0.853,0.853
			c0,1.707-6.827,11.947-25.6,11.947H24.6c-5.12,0-8.533,3.413-8.533,8.533c0,5.12,3.413,8.533,8.533,8.533h42.667
			c29.867,0,40.107-18.773,41.813-21.333c46.933-75.093,126.293-115.2,142.507-122.88C252.44,42.093,254.147,42.093,255,42.093z"/>
		<path style="fill:#060606;" d="M451.267,502.893H58.733c-5.12,0-8.533-3.413-8.533-8.533V195.693c0-5.12,3.413-8.533,8.533-8.533
			h8.533c29.867,0,40.107-18.773,41.813-21.333c46.933-75.093,126.293-115.2,142.507-122.88c2.56-0.853,5.12-0.853,7.68,0
			c14.507,7.68,94.72,47.787,141.653,122.88c1.707,2.56,11.947,22.187,41.813,22.187h8.533c5.12,0,8.533,3.413,8.533,8.533v298.667
			C459.8,499.48,456.387,502.893,451.267,502.893z M67.267,485.827h375.467v-281.6c-29.867,0-49.493-16.213-56.32-30.72
			C345.453,107.8,273.773,69.4,255,60.013C236.227,69.4,164.547,107.8,123.587,174.36c-6.827,13.653-26.453,29.867-56.32,29.867
			V485.827z"/>
		<path style="fill:#060606;" d="M355.693,306.627H152.6c-3.413,0-5.973-1.707-7.68-4.267c-1.707-2.56-1.707-5.973,0-8.533
			l102.4-170.667c1.707-2.56,4.267-4.267,7.68-4.267l0,0c3.413,0,5.973,1.707,7.68,4.267l100.693,170.667
			c1.707,2.56,1.707,5.973,0,8.533S359.107,306.627,355.693,306.627z M167.96,289.56h173.227L255,144.493L167.96,289.56z"/>
		<path style="fill:#060606;" d="M255,366.36L255,366.36c-3.413,0-5.973-1.707-7.68-4.267L146.627,191.427
			c-1.707-2.56-1.707-5.973,0-8.533c1.707-2.56,4.267-4.267,7.68-4.267H357.4c3.413,0,5.973,1.707,7.68,4.267
			c1.707,2.56,1.707,5.973,0,8.533l-102.4,170.667C260.973,364.653,258.413,366.36,255,366.36z M168.813,195.693L255,340.76
			l87.04-145.067H168.813z"/>
		<path style="fill:#060606;" d="M195.267,502.893h-85.333c-5.12,0-8.533-3.413-8.533-8.533V367.213c0-2.56,0.853-4.267,2.56-5.973
			c26.453-26.453,70.827-26.453,97.28,0c1.707,1.707,2.56,3.413,2.56,5.973V494.36C203.8,499.48,200.387,502.893,195.267,502.893z
			 M118.467,485.827h68.267v-115.2c-19.627-17.067-48.64-17.067-68.267,0V485.827z"/>
		<path style="fill:#060606;" d="M400.067,502.893h-85.333c-5.12,0-8.533-3.413-8.533-8.533V367.213c0-2.56,0.853-4.267,2.56-5.973
			c26.453-26.453,70.827-26.453,97.28,0c1.707,1.707,2.56,3.413,2.56,5.973V494.36C408.6,499.48,405.187,502.893,400.067,502.893z
			 M323.267,485.827h68.267v-115.2c-9.387-8.533-21.333-12.8-34.133-12.8c-12.8,0-24.747,4.267-34.133,12.8V485.827z"/>
	</g>
	<path d="M280.6,426.093h-17.067c-5.12,0-8.533-3.413-8.533-8.533c0-5.12,3.413-8.533,8.533-8.533H280.6
		c5.12,0,8.533,3.413,8.533,8.533C289.133,422.68,285.72,426.093,280.6,426.093z"/>
	<path d="M220.867,417.56c0-5.12,3.413-8.533,8.533-8.533c5.12,0,8.533,3.413,8.533,8.533c0,5.12-3.413,8.533-8.533,8.533
		C224.28,426.093,220.867,422.68,220.867,417.56"/>
</g>
<g>
</g>
<g>
</g>
<g>
</g>
<g>
</g>
<g>
</g>
<g>
</g>
<g>
</g>
<g>
</g>
<g>
</g>
<g>
</g>
<g>
</g>
<g>
</g>
<g>
</g>
<g>
</g>
<g>
</g>
</svg>
