<?xml version="1.0" encoding="iso-8859-1"?>
<!-- Generator: Adobe Illustrator 19.0.0, SVG Export Plug-In . SVG Version: 6.00 Build 0)  -->
<svg version="1.1" id="Layer_1" xmlns="http://www.w3.org/2000/svg" xmlns:xlink="http://www.w3.org/1999/xlink" x="0px" y="0px"
	 viewBox="0 0 512 512" style="enable-background:new 0 0 512 512;" xml:space="preserve">
<g>
	<g>
		<path d="M348.884,234.959l-27.101-51.492l27.101-51.492c1.393-2.646,1.299-5.827-0.246-8.385
			c-1.545-2.559-4.315-4.123-7.305-4.123h-53.234l-24.548-46.642c-1.475-2.802-4.382-4.558-7.551-4.558
			c-3.169,0-6.076,1.756-7.551,4.558L223.9,119.467h-53.234c-2.99,0-5.76,1.565-7.305,4.123s-1.639,5.74-0.246,8.386l27.101,51.492
			l-27.101,51.492c-1.393,2.646-1.299,5.827,0.246,8.385c1.545,2.558,4.315,4.123,7.305,4.123h53.234l24.548,46.642
			c1.475,2.802,4.382,4.558,7.551,4.558c3.169,0,6.076-1.756,7.551-4.558l24.548-46.642h53.233c2.99,0,5.76-1.565,7.305-4.123
			C350.183,240.786,350.277,237.605,348.884,234.959z M327.199,136.534l-15.058,28.611l-15.059-28.611H327.199z M256,95.122
			l12.813,24.346h-25.627L256,95.122z M184.801,136.534h30.117l-15.059,28.611L184.801,136.534z M184.801,230.4l15.058-28.611
			l15.059,28.611H184.801z M256,271.813l-12.813-24.346h25.627L256,271.813z M277.796,230.4h-43.592l-24.702-46.933l24.702-46.933
			h43.592l24.702,46.933L277.796,230.4z M297.082,230.4l15.059-28.611l15.058,28.611H297.082z"/>
	</g>
</g>
<g>
	<g>
		<path d="M508.907,206.759L261.441,1.959c-3.156-2.612-7.725-2.612-10.881,0L3.093,206.759c-1.958,1.623-3.093,4.033-3.093,6.575
			v290.133c0,4.713,3.821,8.533,8.533,8.533h187.733h119.466h187.733c4.713,0,8.533-3.821,8.533-8.533V213.334
			C511.999,210.792,510.865,208.382,508.907,206.759z M307.2,494.933H204.8V392.492c0-28.208,22.969-51.158,51.2-51.158
			s51.2,22.95,51.2,51.158V494.933z M494.933,494.933H324.267V392.492c0-37.619-30.624-68.225-68.267-68.225
			s-68.267,30.606-68.267,68.225v102.441H17.067V217.348L256,19.611l238.933,197.737V494.933z"/>
	</g>
</g>
<g>
	<g>
		<path d="M102.4,230.4c-23.526,0-42.667,19.15-42.667,42.687V332.8c0,4.712,3.821,8.533,8.533,8.533h68.266
			c4.713,0,8.533-3.821,8.533-8.533v-59.712C145.067,249.55,125.926,230.4,102.4,230.4z M128,324.267H76.8v-51.179
			c0-14.127,11.484-25.621,25.6-25.621s25.6,11.494,25.6,25.621V324.267z"/>
	</g>
</g>
<g>
	<g>
		<path d="M401.066,230.4c-23.526,0-42.667,19.15-42.667,42.687V332.8c0,4.712,3.821,8.533,8.533,8.533H435.2
			c4.713,0,8.533-3.821,8.533-8.533v-59.712C443.733,249.55,424.592,230.4,401.066,230.4z M426.666,324.267h-51.2v-51.179
			c0-14.127,11.484-25.621,25.6-25.621s25.6,11.494,25.6,25.621V324.267z"/>
	</g>
</g>
<g>
	<g>
		<path d="M102.4,366.934c-23.526,0-42.667,19.15-42.667,42.687v59.712c0,4.713,3.821,8.533,8.533,8.533h68.266
			c4.713,0,8.533-3.821,8.533-8.533v-59.712C145.067,386.084,125.926,366.934,102.4,366.934z M128,460.8H76.8v-51.179
			C76.8,395.494,88.285,384,102.4,384s25.6,11.494,25.6,25.621V460.8z"/>
	</g>
</g>
<g>
	<g>
		<path d="M401.066,366.934c-23.526,0-42.667,19.15-42.667,42.687v59.712c0,4.713,3.821,8.533,8.533,8.533H435.2
			c4.713,0,8.533-3.821,8.533-8.533v-59.712C443.733,386.084,424.592,366.934,401.066,366.934z M426.666,460.8h-51.2v-51.179
			c0-14.127,11.484-25.621,25.6-25.621s25.6,11.494,25.6,25.621V460.8z"/>
	</g>
</g>
<g>
</g>
<g>
</g>
<g>
</g>
<g>
</g>
<g>
</g>
<g>
</g>
<g>
</g>
<g>
</g>
<g>
</g>
<g>
</g>
<g>
</g>
<g>
</g>
<g>
</g>
<g>
</g>
<g>
</g>
</svg>
