<?xml version="1.0" encoding="iso-8859-1"?>
<!-- Generator: Adobe Illustrator 19.0.0, SVG Export Plug-In . SVG Version: 6.00 Build 0)  -->
<svg version="1.1" id="Layer_1" xmlns="http://www.w3.org/2000/svg" xmlns:xlink="http://www.w3.org/1999/xlink" x="0px" y="0px"
	 viewBox="0 0 512 512" style="enable-background:new 0 0 512 512;" xml:space="preserve">
<g>
	<path style="fill:#F95428;" d="M465.205,442.985v51.806c0,9.504-7.704,17.208-17.208,17.208s-17.208-7.705-17.208-17.208v-51.806
		H465.205z"/>
	<path style="fill:#F95428;" d="M81.199,442.985v51.806c0,9.504-7.705,17.208-17.208,17.208c-9.492,0-17.196-7.705-17.196-17.208
		v-51.806H81.199z"/>
</g>
<polygon style="fill:#E6E6E6;" points="443.279,120.157 443.279,391.855 424.549,391.855 87.439,391.855 68.709,391.855 
	68.709,120.157 87.439,120.157 424.549,120.157 "/>
<g>
	<rect x="400.9" y="111.414" style="fill:#F2F2F2;" width="94.193" height="289.185"/>
	<rect x="16.906" y="111.414" style="fill:#F2F2F2;" width="94.181" height="289.185"/>
</g>
<rect x="16.906" y="120.157" style="fill:#E6E6E6;" width="29.694" height="271.699"/>
<polygon style="fill:#CCCCCC;" points="406.536,120.157 406.536,391.855 405.329,391.855 383.603,391.855 382.396,391.855 
	382.396,120.157 383.603,120.157 405.329,120.157 "/>
<rect x="400.9" y="120.157" style="fill:#E6E6E6;" width="29.694" height="271.699"/>
<g>
	<path style="fill:#F95428;" d="M325.685,256.001l34.844-60.352h-69.688l-34.844-60.354l-34.844,60.354h-69.688l34.844,60.352
		l-34.844,60.352h69.69l34.844,60.352l34.844-60.352h69.69L325.685,256.001z M329.155,213.763l-13.928,24.124l-13.928-24.124
		H329.155z M304.769,256.001l-24.386,42.238H231.61l-24.386-42.238l24.386-42.238h48.774L304.769,256.001z M255.996,171.523
		l13.928,24.126h-27.857L255.996,171.523z M182.836,213.763h27.857l-13.929,24.124L182.836,213.763z M182.836,298.241l13.928-24.126
		l13.928,24.126H182.836z M255.996,340.479l-13.928-24.124h27.857L255.996,340.479z M315.227,274.115l13.928,24.126h-27.857
		L315.227,274.115z"/>
	<path style="fill:#F95428;" d="M81.199,17.208v51.818H46.795V17.208C46.795,7.705,54.499,0,63.991,0
		C73.495,0,81.199,7.705,81.199,17.208z"/>
</g>
<path style="fill:#E54728;" d="M68.824,0.7C67.289,0.252,65.671,0,63.991,0c-9.492,0-17.196,7.705-17.196,17.208v51.818h9.661
	V17.208C56.455,9.384,61.682,2.791,68.824,0.7z"/>
<path style="fill:#F95428;" d="M465.205,17.208v51.818h-34.417V17.208C430.789,7.705,438.493,0,447.997,0
	S465.205,7.705,465.205,17.208z"/>
<g>
	<path style="fill:#E54728;" d="M452.818,0.7c-1.535-0.448-3.153-0.7-4.833-0.7c-9.492,0-17.196,7.705-17.196,17.208v51.818h9.661
		V17.208C440.449,9.384,445.676,2.791,452.818,0.7z"/>
	<path style="fill:#E54728;" d="M68.824,511.3c-1.535,0.449-3.153,0.7-4.833,0.7c-9.492,0-17.196-7.705-17.196-17.208v-51.818h9.661
		v51.818C56.455,502.616,61.682,509.209,68.824,511.3z"/>
	<path style="fill:#E54728;" d="M452.818,511.3c-1.535,0.449-3.153,0.7-4.833,0.7c-9.492,0-17.196-7.705-17.196-17.208v-51.818
		h9.661v51.818C440.449,502.616,445.676,509.209,452.818,511.3z"/>
</g>
<g>
	<polygon style="fill:#F7B239;" points="509.585,67.819 509.585,120.157 495.094,120.157 400.9,120.157 386.409,120.157 
		386.409,67.819 430.789,67.819 465.205,67.819 	"/>
	<polygon style="fill:#F7B239;" points="125.579,67.819 125.579,120.157 111.087,120.157 16.906,120.157 2.415,120.157 
		2.415,67.819 46.795,67.819 81.199,67.819 	"/>
</g>
<g>
	<polygon style="fill:#E09B2D;" points="23.741,67.819 23.741,120.157 21.232,120.157 4.925,120.157 2.415,120.157 2.415,67.819 
		10.099,67.819 16.056,67.819 	"/>
	<polygon style="fill:#E09B2D;" points="413.37,67.819 413.37,120.157 410.198,120.157 389.581,120.157 386.409,120.157 
		386.409,67.819 396.124,67.819 403.655,67.819 	"/>
</g>
<g>
	<polygon style="fill:#F7B239;" points="125.579,391.855 125.579,444.193 81.199,444.193 46.795,444.193 2.415,444.193 
		2.415,391.855 16.906,391.855 111.087,391.855 	"/>
	<polygon style="fill:#F7B239;" points="509.585,391.855 509.585,444.193 465.205,444.193 430.789,444.193 386.409,444.193 
		386.409,391.855 400.9,391.855 495.094,391.855 	"/>
</g>
<g>
	<polygon style="fill:#E09B2D;" points="23.741,391.855 23.741,444.193 16.056,444.193 10.099,444.193 2.415,444.193 2.415,391.855 
		4.925,391.855 21.232,391.855 	"/>
	<polygon style="fill:#E09B2D;" points="413.37,391.855 413.37,444.193 403.655,444.193 396.124,444.193 386.409,444.193 
		386.409,391.855 389.581,391.855 410.198,391.855 	"/>
</g>
<g>
</g>
<g>
</g>
<g>
</g>
<g>
</g>
<g>
</g>
<g>
</g>
<g>
</g>
<g>
</g>
<g>
</g>
<g>
</g>
<g>
</g>
<g>
</g>
<g>
</g>
<g>
</g>
<g>
</g>
</svg>
