<?xml version="1.0" encoding="iso-8859-1"?>
<!-- Generator: Adobe Illustrator 19.0.0, SVG Export Plug-In . SVG Version: 6.00 Build 0)  -->
<svg version="1.1" id="Layer_1" xmlns="http://www.w3.org/2000/svg" xmlns:xlink="http://www.w3.org/1999/xlink" x="0px" y="0px"
	 viewBox="0 0 512 512" style="enable-background:new 0 0 512 512;" xml:space="preserve">
<path style="fill:#CCCCCC;" d="M256,172.348c-2.956,0-5.353-2.397-5.353-5.353v-49.318c0-2.956,2.397-5.353,5.353-5.353
	c2.956,0,5.353,2.397,5.353,5.353v49.32C261.353,169.951,258.956,172.348,256,172.348z"/>
<polygon style="fill:#E6E6E6;" points="396.38,332.826 374.526,512 137.474,512 114.827,332.826 137.474,254.058 256,141.886 
	374.526,254.058 "/>
<polygon style="fill:#CCCCCC;" points="137.474,271.506 256,159.333 374.526,271.506 394.901,344.946 396.38,332.826 
	374.526,254.058 256,141.886 137.474,254.058 114.827,332.826 116.359,344.946 "/>
<g>
	<path style="fill:#F2F2F2;" d="M374.526,140.343V244.55v81.671V512h98.944V326.221V140.343H374.526z"/>
	<path style="fill:#F2F2F2;" d="M38.519,140.343v185.878V512h98.956V326.221V244.55V140.343L38.519,140.343L38.519,140.343z"/>
</g>
<g>
	<path style="fill:#E6E6E6;" d="M38.519,140.343v185.878V512h13.654V326.221V244.55V140.343L38.519,140.343L38.519,140.343z"/>
	<path style="fill:#E6E6E6;" d="M374.526,140.343v185.878V512h13.654V326.221V244.55V140.343L374.526,140.343L374.526,140.343z"/>
</g>
<g>
	<path style="fill:#B3B3B3;" d="M330.377,446.795V512h-49.169v-65.205c0-12.813,10.386-23.198,23.198-23.198h2.772
		C319.992,423.597,330.377,433.982,330.377,446.795z"/>
	<path style="fill:#B3B3B3;" d="M230.779,446.795V512h-49.169v-65.205c0-12.813,10.386-23.198,23.198-23.198h2.772
		C220.394,423.597,230.779,433.982,230.779,446.795z"/>
	<path style="fill:#B3B3B3;" d="M106.115,218.095v86.94H69.878v-86.94c0-10.005,8.113-18.118,18.118-18.118
		S106.115,208.09,106.115,218.095z"/>
	<path style="fill:#B3B3B3;" d="M106.115,388.038v47.027H69.878v-47.027c0-10.005,8.113-18.118,18.118-18.118
		S106.115,378.033,106.115,388.038z"/>
	<path style="fill:#B3B3B3;" d="M442.11,388.038v47.027h-36.225v-47.027c0-10.005,8.102-18.118,18.107-18.118
		C434.008,369.919,442.11,378.033,442.11,388.038z"/>
	<path style="fill:#B3B3B3;" d="M442.11,218.095v86.94h-36.225v-86.94c0-10.005,8.102-18.118,18.107-18.118
		C434.008,199.977,442.11,208.09,442.11,218.095z"/>
</g>
<g>
	<path style="fill:#F7B239;" d="M488.293,112.513c0,15.608-5.568,29.908-14.823,41.043h-98.944
		c-9.256-11.135-14.823-25.435-14.823-41.043c0-35.511,28.79-64.301,64.289-64.301C459.503,48.212,488.293,77.002,488.293,112.513z"
		/>
	<path style="fill:#F7B239;" d="M152.286,112.513c0,15.608-5.568,29.908-14.811,41.043H38.519
		c-9.256-11.135-14.811-25.435-14.811-41.043c0-35.511,28.778-64.301,64.289-64.301S152.286,77.002,152.286,112.513z"/>
</g>
<g>
	<path style="fill:#E09B2D;" d="M23.708,112.513c0,15.608,5.556,29.908,14.811,41.043h13.187
		c-6.789-11.135-10.864-25.435-10.864-41.043c0-35.511,21.108-64.301,47.154-64.301C52.485,48.212,23.708,77.002,23.708,112.513z"/>
	<path style="fill:#E09B2D;" d="M359.702,112.513c0,15.608,5.556,29.908,14.811,41.043h13.187
		c-6.789-11.135-10.864-25.435-10.864-41.043c0-35.511,21.108-64.301,47.154-64.301C388.48,48.212,359.702,77.002,359.702,112.513z"
		/>
</g>
<g>
	<path style="fill:#F7B239;" d="M294.907,300.785l19.456-33.697h-38.91l-19.456-33.698l-19.456,33.698h-38.91l19.456,33.697
		l-19.456,33.697h38.91l19.456,33.698l19.456-33.698h38.91L294.907,300.785z M294.155,278.753l-5.984,10.364l-5.984-10.364H294.155z
		 M281.435,300.785l-12.719,22.031h-25.44l-12.72-22.031l12.72-22.031h25.44L281.435,300.785z M255.996,256.723l5.984,10.364
		h-11.968L255.996,256.723z M217.837,278.753h11.968l-5.984,10.364L217.837,278.753z M217.837,322.816l5.984-10.364l5.984,10.364
		H217.837z M255.996,344.846l-5.984-10.364h11.968L255.996,344.846z M288.171,312.452l5.984,10.364h-11.968L288.171,312.452z"/>
	<path style="fill:#F7B239;" d="M423.997,53.569c-2.956,0-5.353-2.397-5.353-5.353V5.353c0-2.956,2.397-5.353,5.353-5.353
		c2.956,0,5.353,2.397,5.353,5.353v42.862C429.351,51.172,426.954,53.569,423.997,53.569z"/>
	<path style="fill:#F7B239;" d="M87.994,53.569c-2.956,0-5.353-2.397-5.353-5.353V5.353C82.641,2.397,85.038,0,87.994,0
		s5.353,2.397,5.353,5.353v42.862C93.348,51.172,90.951,53.569,87.994,53.569z"/>
</g>
<g>
</g>
<g>
</g>
<g>
</g>
<g>
</g>
<g>
</g>
<g>
</g>
<g>
</g>
<g>
</g>
<g>
</g>
<g>
</g>
<g>
</g>
<g>
</g>
<g>
</g>
<g>
</g>
<g>
</g>
</svg>
