<?xml version="1.0" encoding="utf-8"?>
<!-- Generator: Adobe Illustrator 19.1.0, SVG Export Plug-In . SVG Version: 6.00 Build 0)  -->
<svg version="1.1" id="Layer_1" xmlns="http://www.w3.org/2000/svg" xmlns:xlink="http://www.w3.org/1999/xlink" x="0px" y="0px"
	 viewBox="0 0 40 34" enable-background="new 0 0 40 34" xml:space="preserve">
<g>
	<polygon fill="#FF4690" points="9.8,11.3 6.5,5.7 9.8,0 16.4,0 19.6,5.7 16.4,11.3 	"/>
	<polygon fill="#00BAE8" points="22.9,11.3 19.6,5.7 22.9,0 29.4,0 32.7,5.7 29.4,11.3 	"/>
	<polygon fill="#8961FF" points="3.3,22.7 0,17 3.3,11.3 9.8,11.3 13.1,17 9.8,22.7 	"/>
	<polygon fill="#C89A1D" points="29.4,22.7 26.2,17 29.4,11.3 36,11.3 39.3,17 36,22.7 	"/>
	<polygon fill="#00BE92" points="9.8,34 6.5,28.3 9.8,22.7 16.4,22.7 19.6,28.3 16.4,34 	"/>
	<polygon fill="#FF4A43" points="22.9,34 19.6,28.3 22.9,22.7 29.4,22.7 32.7,28.3 29.4,34 	"/>
</g>
</svg>
