<?xml version="1.0" encoding="iso-8859-1"?>
<!-- Generator: Adobe Illustrator 19.0.0, SVG Export Plug-In . SVG Version: 6.00 Build 0)  -->
<svg version="1.1" id="Capa_1" xmlns="http://www.w3.org/2000/svg" xmlns:xlink="http://www.w3.org/1999/xlink" x="0px" y="0px"
	 viewBox="0 0 58 58" style="enable-background:new 0 0 58 58;" xml:space="preserve">
<polygon style="fill:#E2DBCA;" points="50,11.5 50,36.5 29,0.5 8,36.5 8,11.5 4,5.5 0,11.5 0,36.5 0,57.5 8,57.5 50,57.5 58,57.5 
	58,36.5 58,11.5 54,5.5 "/>
<polygon style="fill:#8697CB;" points="8,20.5 8,11.5 4,5.5 0,11.5 0,20.5 "/>
<polygon style="fill:#8697CB;" points="50,11.5 50,20.5 58,20.5 58,11.5 54,5.5 "/>
<path style="fill:#556080;" d="M4,18.5c-0.553,0-1-0.447-1-1v-6c0-0.553,0.447-1,1-1s1,0.447,1,1v6C5,18.053,4.553,18.5,4,18.5z"/>
<path style="fill:#556080;" d="M54,18.5c-0.553,0-1-0.447-1-1v-6c0-0.553,0.447-1,1-1s1,0.447,1,1v6C55,18.053,54.553,18.5,54,18.5z
	"/>
<path style="fill:#554658;" d="M26,57.5h-8v-10c0-2.209,1.791-4,4-4h0c2.209,0,4,1.791,4,4V57.5z"/>
<path style="fill:#554658;" d="M13,57.5H5v-10c0-2.209,1.791-4,4-4h0c2.209,0,4,1.791,4,4V57.5z"/>
<path style="fill:#554658;" d="M40,57.5h-8v-10c0-2.209,1.791-4,4-4h0c2.209,0,4,1.791,4,4V57.5z"/>
<path style="fill:#554658;" d="M53,57.5h-8v-10c0-2.209,1.791-4,4-4h0c2.209,0,4,1.791,4,4V57.5z"/>
<polygon style="fill:none;stroke:#8697CB;stroke-width:2;stroke-linecap:round;stroke-linejoin:round;stroke-miterlimit:10;" points="
	40.824,36.5 17,36.5 29,16.5 "/>
<polygon style="fill:none;stroke:#8697CB;stroke-width:2;stroke-linecap:round;stroke-linejoin:round;stroke-miterlimit:10;" points="
	17.176,23.5 41,23.5 29,43.5 "/>
<g>
</g>
<g>
</g>
<g>
</g>
<g>
</g>
<g>
</g>
<g>
</g>
<g>
</g>
<g>
</g>
<g>
</g>
<g>
</g>
<g>
</g>
<g>
</g>
<g>
</g>
<g>
</g>
<g>
</g>
</svg>
