<?xml version="1.0" encoding="iso-8859-1"?>
<!-- Generator: Adobe Illustrator 19.0.0, SVG Export Plug-In . SVG Version: 6.00 Build 0)  -->
<svg version="1.1" id="Capa_1" xmlns="http://www.w3.org/2000/svg" xmlns:xlink="http://www.w3.org/1999/xlink" x="0px" y="0px"
	 viewBox="0 0 480 480" style="enable-background:new 0 0 480 480;" xml:space="preserve">
<g>
	<path style="fill:#695A69;" d="M240,65.501V41.45l2.909-4.658l12.35-0.428l-5.804-10.909l5.804-10.909l-12.35-0.428l-6.545-10.481
		l-6.545,10.481l-12.35,0.428l5.804,10.909l-5.804,10.909l12.35,0.428l2.909,4.658v24.051c1.208-0.03,2.421-0.046,3.636-0.046
		S238.792,65.47,240,65.501z"/>
	<path style="fill:#DFD0C6;" d="M376.192,183.531c0.133,0.789,0.267,1.578,0.387,2.372
		C376.459,185.109,376.325,184.32,376.192,183.531z"/>
	<path style="fill:#DFD0C6;" d="M377.232,190.871c0.078,0.679,0.161,1.357,0.23,2.039
		C377.393,192.229,377.311,191.551,377.232,190.871z"/>
	<path style="fill:#DFD0C6;" d="M376.761,187.201c0.103,0.729,0.209,1.456,0.302,2.188
		C376.971,188.658,376.864,187.93,376.761,187.201z"/>
	<path style="fill:#DFD0C6;" d="M377.609,194.566c0.056,0.631,0.118,1.26,0.166,1.894
		C377.727,195.827,377.665,195.198,377.609,194.566z"/>
	<path style="fill:#DFD0C6;" d="M378.086,202.317c0.015,0.442,0.038,0.882,0.05,1.326
		C378.125,203.199,378.101,202.759,378.086,202.317z"/>
	<path style="fill:#DFD0C6;" d="M377.895,198.359c0.035,0.559,0.077,1.117,0.105,1.678
		C377.971,199.476,377.929,198.918,377.895,198.359z"/>
	<path style="fill:#DFD0C6;" d="M372.999,169.176c0.29,1.041,0.569,2.086,0.836,3.137
		C373.568,171.262,373.288,170.217,372.999,169.176z"/>
	<path style="fill:#DFD0C6;" d="M373.938,172.735c0.243,0.97,0.479,1.942,0.702,2.92
		C374.417,174.678,374.181,173.706,373.938,172.735z"/>
	<path style="fill:#DFD0C6;" d="M374.779,176.297c0.203,0.91,0.402,1.822,0.587,2.738
		C375.181,178.119,374.982,177.208,374.779,176.297z"/>
	<path style="fill:#DFD0C6;" d="M375.531,179.896c0.167,0.85,0.331,1.701,0.482,2.556
		C375.863,181.597,375.698,180.746,375.531,179.896z"/>
	<path style="fill:#DFD0C6;" d="M240,105.455V65.639c63.447,1.611,116.561,44.802,132.955,103.376
		C356.57,110.393,303.466,67.098,240,65.501c-1.208-0.03-2.421-0.046-3.636-0.046s-2.428,0.016-3.636,0.046
		C156.084,67.43,94.545,130.164,94.545,207.273H240V105.455z"/>
	<path style="fill:#DFD0C6;" d="M72.727,454.545h14.545v-7.273c0-84.348,68.379-152.727,152.728-152.727
		c84.35,0,152.727,68.379,152.727,152.727v7.273h14.545V309.091v-36.364v-14.545h-29.091h-21.818h-21.818H320h-21.818h-14.545
		h-21.818h-14.546H240h-14.546h-14.545h-21.818h-14.545h-21.818h-14.545h-21.818H94.545H72.727v14.545L0,309.091h72.727V454.545z"/>
	<path style="fill:#C8B2A8;" d="M240,294.545c-84.349,0-152.728,68.379-152.728,152.727v7.273h305.455v-7.273
		C392.727,362.924,324.35,294.545,240,294.545z M167.272,440h-29.091v-57.455c0-4.418,3.582-8,8-8h13.091c4.418,0,8,3.582,8,8V440z
		 M210.909,440h-29.091v-57.455c0-4.418,3.582-8,8-8h13.091c4.418,0,8,3.582,8,8V440z M254.545,440h-29.091v-57.455
		c0-4.418,3.582-8,8-8h13.091c4.418,0,8,3.582,8,8V440z M298.182,440h-29.091v-57.455c0-4.418,3.582-8,8-8h13.091
		c4.418,0,8,3.582,8,8V440z M341.818,440h-29.091v-57.455c0-4.418,3.582-8,8-8h13.091c4.418,0,8,3.582,8,8V440z"/>
	<path style="fill:#C8B2A8;" d="M116.364,258.182v-25.455c0-6.024,4.885-10.909,10.909-10.909c6.025,0,10.909,4.885,10.909,10.909
		v25.455h14.545v-25.455c0-6.024,4.885-10.909,10.909-10.909s10.909,4.885,10.909,10.909v25.455h14.545v-25.455
		c0-6.024,4.885-10.909,10.909-10.909c6.024,0,10.909,4.885,10.909,10.909v25.455h14.545v-25.455
		c0-6.024,4.885-10.909,10.909-10.909c1.277,0,2.497,0.231,3.636,0.634v-15.18H94.545v50.909H116.364z"/>
	<path style="fill:#A08A8A;" d="M240,222.452c4.234,1.499,7.272,5.527,7.272,10.275v25.455h14.546v-25.455
		c0-6.024,4.885-10.909,10.909-10.909c6.025,0,10.909,4.885,10.909,10.909v25.455h14.545v-25.455
		c0-6.024,4.885-10.909,10.909-10.909S320,226.703,320,232.727v25.455h14.545v-25.455c0-6.024,4.885-10.909,10.909-10.909
		c6.025,0,10.909,4.885,10.909,10.909v25.455h21.818v-50.909H240V222.452z"/>
	<path style="fill:#A08A8A;" d="M407.272,309.091v145.455H480V309.091H407.272z M458.182,440h-29.091v-28.364c0-4.418,3.582-8,8-8
		h19.091c1.104,0,2,0.895,2,2V440z M458.182,381.818h-29.091v-28.364c0-4.418,3.582-8,8-8h13.091c4.418,0,8,3.582,8,8V381.818z"/>
	<path style="fill:#C8B2A8;" d="M72.727,309.091H0v145.455h72.727V309.091z M50.909,440H21.818v-28.364c0-4.418,3.582-8,8-8h13.091
		c4.418,0,8,3.582,8,8V440z M50.909,381.818H21.818v-28.364c0-4.418,3.582-8,8-8h13.091c4.418,0,8,3.582,8,8V381.818z"/>
	<polygon style="fill:#C8B2A8;" points="480,309.091 407.272,272.727 407.272,309.091 	"/>
	<path style="fill:#695A69;" d="M333.818,374.545h-13.091c-4.418,0-8,3.582-8,8V440h29.091v-57.455
		C341.818,378.127,338.236,374.545,333.818,374.545z"/>
	<path style="fill:#695A69;" d="M290.182,374.545h-13.091c-4.418,0-8,3.582-8,8V440h29.091v-57.455
		C298.182,378.127,294.6,374.545,290.182,374.545z"/>
	<path style="fill:#695A69;" d="M202.909,374.545h-13.091c-4.418,0-8,3.582-8,8V440h29.091v-57.455
		C210.909,378.127,207.327,374.545,202.909,374.545z"/>
	<path style="fill:#695A69;" d="M246.545,374.545h-13.091c-4.418,0-8,3.582-8,8V440h29.091v-57.455
		C254.545,378.127,250.964,374.545,246.545,374.545z"/>
	<path style="fill:#695A69;" d="M159.272,374.545h-13.091c-4.418,0-8,3.582-8,8V440h29.091v-57.455
		C167.272,378.127,163.691,374.545,159.272,374.545z"/>
	<path style="fill:#695A69;" d="M450.182,345.455h-13.091c-4.418,0-8,3.582-8,8v28.364h29.091v-28.364
		C458.182,349.036,454.6,345.455,450.182,345.455z"/>
	<path style="fill:#695A69;" d="M456.182,403.636h-19.091c-4.418,0-8,3.582-8,8V440h29.091v-34.364
		C458.182,404.532,457.286,403.636,456.182,403.636z"/>
	<path style="fill:#695A69;" d="M42.909,345.455H29.818c-4.418,0-8,3.582-8,8v28.364h29.091v-28.364
		C50.909,349.036,47.327,345.455,42.909,345.455z"/>
	<path style="fill:#695A69;" d="M42.909,403.636H29.818c-4.418,0-8,3.582-8,8V440h29.091v-28.364
		C50.909,407.218,47.327,403.636,42.909,403.636z"/>
	<path style="fill:#695A69;" d="M127.272,221.818c-6.024,0-10.909,4.885-10.909,10.909v25.455h21.818v-25.455
		C138.182,226.703,133.297,221.818,127.272,221.818z"/>
	<path style="fill:#695A69;" d="M345.454,221.818c-6.024,0-10.909,4.885-10.909,10.909v25.455h21.818v-25.455
		C356.364,226.703,351.479,221.818,345.454,221.818z"/>
	<path style="fill:#695A69;" d="M309.091,221.818c-6.024,0-10.909,4.885-10.909,10.909v25.455H320v-25.455
		C320,226.703,315.115,221.818,309.091,221.818z"/>
	<path style="fill:#695A69;" d="M272.727,221.818c-6.024,0-10.909,4.885-10.909,10.909v25.455h21.818v-25.455
		C283.636,226.703,278.752,221.818,272.727,221.818z"/>
	<path style="fill:#695A69;" d="M240,222.452c-1.139-0.403-2.359-0.634-3.636-0.634c-6.025,0-10.909,4.885-10.909,10.909v25.455H240
		h7.272v-25.455C247.272,227.98,244.234,223.952,240,222.452z"/>
	<path style="fill:#695A69;" d="M200,221.818c-6.025,0-10.909,4.885-10.909,10.909v25.455h21.818v-25.455
		C210.909,226.703,206.024,221.818,200,221.818z"/>
	<path style="fill:#695A69;" d="M163.636,221.818c-6.024,0-10.909,4.885-10.909,10.909v25.455h21.818v-25.455
		C174.545,226.703,169.661,221.818,163.636,221.818z"/>
	<path style="fill:#C8B2A8;" d="M240,65.639v39.815v101.818h138.182c0-1.214-0.016-2.424-0.046-3.63
		c-0.011-0.443-0.034-0.883-0.05-1.326c-0.026-0.761-0.049-1.522-0.087-2.28c-0.028-0.561-0.07-1.118-0.105-1.678
		c-0.039-0.633-0.073-1.268-0.12-1.898c-0.048-0.633-0.109-1.263-0.166-1.894c-0.049-0.552-0.092-1.106-0.147-1.656
		c-0.069-0.682-0.151-1.36-0.23-2.039c-0.057-0.494-0.107-0.989-0.169-1.481c-0.092-0.732-0.198-1.46-0.302-2.188
		c-0.062-0.433-0.117-0.868-0.182-1.299c-0.12-0.794-0.254-1.582-0.387-2.372c-0.061-0.359-0.115-0.72-0.179-1.078
		c-0.151-0.856-0.316-1.706-0.482-2.556c-0.056-0.286-0.107-0.575-0.165-0.861c-0.186-0.916-0.384-1.828-0.587-2.738
		c-0.048-0.214-0.091-0.429-0.14-0.642c-0.223-0.978-0.459-1.95-0.702-2.92c-0.035-0.141-0.067-0.282-0.103-0.423
		c-0.267-1.05-0.546-2.096-0.836-3.137c-0.015-0.054-0.029-0.107-0.044-0.161C356.561,110.441,303.447,67.25,240,65.639z"/>
	<rect x="87.272" y="454.545" style="fill:#A08A8A;" width="305.455" height="21.818"/>
	<rect y="454.545" style="fill:#A08A8A;" width="72.727" height="21.818"/>
	<rect x="407.272" y="454.545" style="fill:#695A69;" width="72.728" height="21.818"/>
	<rect x="392.727" y="454.545" style="fill:#C8B2A8;" width="14.545" height="21.818"/>
	<rect x="72.727" y="454.545" style="fill:#C8B2A8;" width="14.545" height="21.818"/>
</g>
<g>
</g>
<g>
</g>
<g>
</g>
<g>
</g>
<g>
</g>
<g>
</g>
<g>
</g>
<g>
</g>
<g>
</g>
<g>
</g>
<g>
</g>
<g>
</g>
<g>
</g>
<g>
</g>
<g>
</g>
</svg>
