<?xml version="1.0" encoding="iso-8859-1"?>
<!-- Generator: Adobe Illustrator 19.0.0, SVG Export Plug-In . SVG Version: 6.00 Build 0)  -->
<svg version="1.1" id="Layer_1" xmlns="http://www.w3.org/2000/svg" xmlns:xlink="http://www.w3.org/1999/xlink" x="0px" y="0px"
	 viewBox="0 0 512 512" style="enable-background:new 0 0 512 512;" xml:space="preserve">
<path style="fill:#DAE1E6;" d="M378.435,484.174h-244.87v-244.87c0-4.581,1.884-8.961,5.21-12.112l105.747-100.181
	c6.437-6.098,16.52-6.098,22.957,0l105.747,100.181c3.325,3.151,5.209,7.531,5.209,12.112V484.174z"/>
<path style="fill:#C3CFD9;" d="M256,484.174h122.435v-244.87c0-4.581-1.884-8.961-5.21-12.112L267.478,127.012
	c-3.218-3.049-7.348-4.573-11.478-4.573V484.174z"/>
<path style="fill:#FFC033;" d="M242.153,215.635l-14.446,24.904h-30.698c-5.764,0-11.089,3.078-13.965,8.072
	c-2.877,4.994-2.868,11.145,0.024,16.131l15.3,26.378l-15.3,26.378c-2.893,4.985-2.902,11.136-0.024,16.131
	c2.876,4.994,8.202,8.072,13.965,8.072h30.698l14.446,24.904c2.884,4.971,8.195,8.031,13.942,8.031s11.058-3.06,13.942-8.031
	l14.446-24.904h30.698c5.764,0,11.089-3.078,13.966-8.072c2.876-4.994,2.867-11.145-0.025-16.131l-15.3-26.378l15.3-26.378
	c2.893-4.985,2.901-11.136,0.025-16.131c-2.877-4.994-8.202-8.072-13.966-8.072h-30.698l-14.446-24.904
	c-2.884-4.971-8.195-8.031-13.942-8.031C250.347,207.605,245.035,210.665,242.153,215.635z M265.914,272.775l10.642,18.347
	l-10.642,18.347h-19.641l-10.642-18.347l10.642-18.347H265.914z"/>
<path style="fill:#F9A926;" d="M270.035,366.609l14.446-24.904h30.698c5.764,0,11.089-3.078,13.966-8.072
	c2.876-4.994,2.867-11.145-0.024-16.131l-15.3-26.378l15.3-26.378c2.893-4.985,2.901-11.136,0.024-16.131
	c-2.877-4.994-8.202-8.072-13.966-8.072h-30.698l-14.446-24.904c-2.884-4.971-8.195-8.031-13.942-8.031
	c-0.031,0-0.062,0.003-0.093,0.003v65.166h9.914l10.642,18.347l-10.642,18.347H256v65.166c0.031,0,0.062,0.003,0.093,0.003
	C261.84,374.639,267.153,371.58,270.035,366.609z"/>
<path style="fill:#3AACE6;" d="M373.218,210.489l-100.522-95.231V55.652c0-9.223-7.479-16.696-16.696-16.696
	s-16.696,7.473-16.696,16.696v59.606l-100.522,95.231c-6.696,6.342-6.979,16.907-0.641,23.603
	c6.337,6.685,16.903,6.979,23.598,0.636L256,145.435l94.261,89.294c6.678,6.33,17.241,6.068,23.598-0.636
	C380.196,227.397,379.913,216.832,373.218,210.489z"/>
<path style="fill:#2B9FD9;" d="M350.261,234.729c6.679,6.33,17.241,6.068,23.598-0.636c6.337-6.696,6.054-17.261-0.641-23.603
	l-100.522-95.232V55.652c0-9.223-7.479-16.696-16.696-16.696v106.478L350.261,234.729z"/>
<path style="fill:#6B7A99;" d="M217.043,384c-9.217,0-16.696,7.473-16.696,16.696v83.478h33.391v-83.478
	C233.739,391.473,226.261,384,217.043,384z"/>
<path style="fill:#5A6680;" d="M294.957,384c-9.217,0-16.696,7.473-16.696,16.696v83.478h33.391v-83.478
	C311.652,391.473,304.174,384,294.957,384z"/>
<path style="fill:#FFC033;" d="M91.27,44.522c0-9.223-7.479-16.696-16.696-16.696s-16.696,7.473-16.696,16.696v55.652
	c0,9.223,7.479,16.696,16.696,16.696s16.696-7.473,16.696-16.696V44.522z"/>
<path style="fill:#3AACE6;" d="M0,158.609v41.739c0,9.22,7.475,16.696,16.696,16.696h116.87c9.22,0,16.696-7.475,16.696-16.696
	v-41.739c0-41.493-33.637-75.13-75.13-75.13l0,0C33.637,83.478,0,117.116,0,158.609z"/>
<path style="fill:#EDF0F2;" d="M150.261,484.174H16.696C7.475,484.174,0,476.699,0,467.478V183.652h150.261V484.174z"/>
<g>
	<path style="fill:#6B7A99;" d="M74.574,250.435c-9.217,0-16.696,7.473-16.696,16.696v50.087H91.27V267.13
		C91.27,257.908,83.791,250.435,74.574,250.435z"/>
	<path style="fill:#6B7A99;" d="M74.574,350.609c-9.217,0-16.696,7.473-16.696,16.696v50.087H91.27v-50.087
		C91.27,358.082,83.791,350.609,74.574,350.609z"/>
</g>
<path style="fill:#F9A926;" d="M420.73,44.522c0-9.223,7.479-16.696,16.696-16.696c9.217,0,16.696,7.473,16.696,16.696v55.652
	c0,9.223-7.479,16.696-16.696,16.696c-9.217,0-16.696-7.473-16.696-16.696V44.522z"/>
<path style="fill:#2B9FD9;" d="M512,158.609v41.739c0,9.22-7.475,16.696-16.696,16.696h-116.87c-9.22,0-16.696-7.475-16.696-16.696
	v-41.739c0-41.493,33.637-75.13,75.13-75.13l0,0C478.363,83.478,512,117.116,512,158.609z"/>
<path style="fill:#DAE1E6;" d="M361.739,183.652H512v283.826c0,9.22-7.475,16.696-16.696,16.696H361.739V183.652z"/>
<g>
	<path style="fill:#5A6680;" d="M437.426,250.435c9.217,0,16.696,7.473,16.696,16.696v50.087H420.73V267.13
		C420.73,257.908,428.209,250.435,437.426,250.435z"/>
	<path style="fill:#5A6680;" d="M437.426,350.609c9.217,0,16.696,7.473,16.696,16.696v50.087H420.73v-50.087
		C420.73,358.082,428.209,350.609,437.426,350.609z"/>
</g>
<g>
</g>
<g>
</g>
<g>
</g>
<g>
</g>
<g>
</g>
<g>
</g>
<g>
</g>
<g>
</g>
<g>
</g>
<g>
</g>
<g>
</g>
<g>
</g>
<g>
</g>
<g>
</g>
<g>
</g>
</svg>
